<?xml version="1.0" standalone="no"?>
<!DOCTYPE svg PUBLIC "-//W3C//DTD SVG 20010904//EN"
 "http://www.w3.org/TR/2001/REC-SVG-20010904/DTD/svg10.dtd">
<svg version="1.0" xmlns="http://www.w3.org/2000/svg"
 width="1080.000000pt" height="1080.000000pt" viewBox="0 0 1080.000000 1080.000000"
 preserveAspectRatio="xMidYMid meet">
<metadata>
Created by potrace 1.14, written by Peter Selinger 2001-2017
</metadata>
<g transform="translate(0.000000,1080.000000) scale(0.100000,-0.100000)"
fill="#000000" stroke="none">
<path d="M8407 10618 c6 -11 53 -10 53 1 0 4 -13 8 -29 7 -16 -1 -27 -4 -24
-8z"/>
<path d="M8375 10540 c-3 -5 -1 -10 4 -10 6 0 11 5 11 10 0 6 -2 10 -4 10 -3
0 -8 -4 -11 -10z"/>
<path d="M4830 10530 c0 -5 5 -10 10 -10 6 0 10 5 10 10 0 6 -4 10 -10 10 -5
0 -10 -4 -10 -10z"/>
<path d="M4968 10533 c7 -3 16 -2 19 1 4 3 -2 6 -13 5 -11 0 -14 -3 -6 -6z"/>
<path d="M4743 10518 c-14 -4 -30 -5 -34 -2 -4 2 -10 0 -14 -6 -7 -12 -105
-61 -105 -53 0 3 -8 -1 -18 -10 -10 -10 -22 -14 -27 -10 -4 5 -5 0 -2 -9 4
-10 2 -18 -4 -18 -16 0 -59 -36 -52 -44 3 -3 1 -6 -6 -6 -21 0 -41 -27 -41
-54 0 -33 -34 -68 -57 -59 -10 3 -15 3 -11 -1 3 -4 14 -9 25 -11 10 -2 19 -4
20 -4 2 -1 -5 -10 -14 -21 -15 -18 -19 -18 -39 -5 -15 9 -39 13 -71 10 -26 -2
-64 -1 -83 3 -32 7 -90 -11 -90 -28 0 -3 29 -4 64 -2 67 4 126 -15 126 -42 0
-20 -11 -26 -30 -16 -10 5 -21 6 -25 2 -7 -8 -11 -9 -57 -12 l-33 -2 39 -12
c35 -11 37 -13 22 -28 -9 -9 -13 -23 -10 -31 4 -11 -2 -14 -20 -12 -15 2 -24
0 -21 -5 10 -15 -27 -42 -52 -37 -19 4 -22 1 -18 -14 4 -13 1 -19 -8 -19 -8 0
-28 -13 -45 -30 -18 -16 -36 -30 -42 -30 -5 0 -10 -5 -10 -12 0 -18 -60 -66
-91 -73 -16 -4 -28 -10 -27 -13 5 -16 -36 -62 -55 -62 -20 0 -20 -1 -2 -13 19
-15 13 -37 -11 -37 -8 0 -14 -9 -14 -20 0 -13 -9 -22 -27 -27 l-28 -6 29 -12
c23 -10 25 -13 11 -19 -10 -3 -15 -12 -11 -21 3 -9 0 -15 -9 -15 -9 0 -15 -9
-15 -23 0 -12 -11 -34 -25 -49 -14 -15 -25 -31 -25 -35 0 -4 -16 -39 -36 -78
-20 -38 -40 -90 -45 -115 -5 -25 -12 -56 -15 -70 -3 -14 -7 -80 -9 -148 -2
-100 0 -124 13 -131 10 -6 11 -10 3 -15 -8 -5 -8 -13 -1 -26 6 -10 6 -21 2
-24 -4 -2 -7 -20 -7 -39 1 -28 -5 -40 -32 -63 -18 -15 -33 -35 -33 -45 0 -10
-6 -22 -13 -26 -27 -17 -44 -57 -36 -86 7 -26 3 -47 -18 -97 -3 -8 -5 -23 -4
-34 2 -10 -1 -16 -6 -13 -5 3 -7 -7 -5 -24 2 -16 0 -29 -6 -29 -6 0 -9 -9 -7
-19 4 -21 -19 -107 -34 -125 -5 -6 -20 -54 -34 -106 -14 -52 -30 -107 -35
-122 -6 -14 -12 -56 -13 -93 -1 -38 -9 -81 -18 -99 -27 -52 -50 -120 -50 -141
2 -30 -12 -185 -21 -231 -4 -22 -3 -51 2 -65 6 -15 5 -44 -2 -81 -10 -44 -10
-68 0 -107 6 -27 9 -55 5 -61 -4 -6 -7 -107 -7 -223 -1 -188 2 -219 20 -277
32 -99 96 -247 117 -270 19 -21 19 -22 -4 -83 -12 -34 -35 -98 -51 -142 -26
-76 -30 -82 -81 -113 -30 -18 -103 -58 -163 -89 -108 -55 -294 -181 -328 -222
-10 -12 -28 -21 -40 -21 -32 0 -245 -58 -280 -76 -64 -33 -80 -128 -49 -293
12 -62 19 -121 16 -131 -3 -10 0 -33 8 -52 7 -18 22 -65 32 -104 l18 -71 -57
-154 c-228 -610 -315 -918 -436 -1549 -57 -301 -72 -368 -130 -595 -52 -205
-95 -437 -86 -461 3 -8 20 -14 41 -14 19 0 68 -12 108 -26 39 -14 88 -30 107
-36 19 -6 61 -23 92 -39 31 -16 83 -36 116 -45 l59 -17 12 -117 c7 -65 28
-194 47 -286 19 -93 42 -204 50 -246 19 -99 46 -159 92 -206 77 -76 224 -202
281 -239 2 -1 -9 -63 -23 -138 -15 -74 -26 -159 -24 -188 2 -34 -2 -56 -10
-62 -7 -6 -21 -66 -32 -135 -10 -69 -26 -165 -34 -215 -8 -50 -18 -108 -21
-130 -4 -22 -9 -50 -12 -63 l-5 -22 578 3 c319 3 599 8 622 12 28 5 48 3 55
-4 8 -8 475 -11 1708 -11 l1696 0 -14 73 c-8 39 -22 112 -33 162 -44 211 -110
584 -125 709 -7 54 -6 58 11 53 11 -3 89 -22 174 -43 198 -47 290 -50 370 -12
95 44 155 121 184 234 22 83 20 94 -9 62 -13 -16 -28 -28 -33 -28 -5 0 -24 -7
-42 -17 -42 -20 -166 -23 -265 -5 -38 7 -80 15 -92 17 -13 2 -33 11 -45 19
-12 9 -33 16 -45 16 -13 0 -23 5 -23 11 0 5 -4 8 -9 4 -12 -7 -91 17 -91 27 0
5 -11 8 -24 8 -13 0 -37 7 -52 15 -16 8 -37 15 -47 15 -10 0 -80 16 -155 36
-76 19 -162 42 -193 50 -30 8 -81 14 -112 14 -40 0 -59 4 -63 14 -3 8 -15 14
-27 14 -53 -1 -191 13 -206 21 -9 4 -35 9 -58 10 -24 0 -62 5 -85 11 -24 5
-61 10 -83 10 -22 0 -63 8 -91 19 -28 10 -69 21 -90 25 -21 4 -46 14 -55 22
-9 8 -38 18 -65 23 -27 4 -58 12 -69 18 -82 42 -243 82 -360 88 -33 2 -78 10
-100 19 -22 8 -49 15 -60 16 -12 0 -25 4 -30 9 -6 5 -62 19 -125 30 -63 12
-180 39 -259 61 -81 23 -186 45 -240 50 -119 12 -158 23 -195 55 -31 27 -36
28 -104 25 -24 -1 -65 4 -92 10 -41 10 -64 8 -149 -9 -55 -12 -103 -21 -106
-21 -4 0 -5 -6 -2 -14 4 -10 -4 -12 -34 -10 -21 2 -56 6 -77 8 -21 1 -76 -2
-122 -9 -82 -12 -84 -12 -105 11 -12 13 -29 24 -38 24 -9 0 -25 10 -36 21 -19
21 -30 22 -206 23 -174 1 -188 2 -201 21 -8 11 -14 34 -12 50 3 29 5 30 58 33
49 2 216 -24 278 -43 22 -7 23 -6 17 28 -9 44 2 51 78 48 44 -2 58 1 55 11 -5
14 -39 26 -84 27 -22 1 -43 13 -73 42 l-42 42 -77 -8 c-73 -7 -185 -8 -282 -3
-33 2 -46 8 -48 20 -5 25 16 58 36 58 10 0 27 7 38 15 23 17 60 19 70 4 3 -6
17 -8 32 -4 15 4 75 6 136 6 150 -1 216 18 186 54 -29 35 -131 93 -174 99 -47
7 -110 -5 -158 -30 -16 -9 -51 -14 -85 -13 -32 1 -62 0 -68 -1 -5 -1 -24 -2
-41 -1 -28 1 -33 5 -39 37 -8 47 9 88 43 103 14 7 92 15 172 18 159 6 192 16
254 82 18 18 40 31 54 31 24 0 24 1 9 18 -9 10 -35 28 -57 41 l-40 22 0 -25
c0 -25 -2 -25 -60 -22 -41 2 -60 -1 -60 -9 0 -6 -6 -12 -12 -12 -74 -3 -242
-14 -274 -19 -79 -11 -100 24 -71 120 9 29 21 44 48 57 49 26 220 50 295 43
43 -5 81 -1 130 11 44 11 110 18 182 19 66 1 113 5 114 11 1 6 -18 17 -43 26
-29 11 -52 28 -68 52 -19 29 -27 34 -42 27 -28 -15 -68 -12 -150 14 -107 33
-209 89 -237 129 -37 56 -21 79 25 35 17 -16 36 -22 71 -22 44 -1 47 1 47 25
-1 26 0 26 100 32 l100 7 130 -64 c72 -35 146 -67 165 -71 93 -19 125 -43 245
-180 64 -73 131 -145 150 -159 19 -14 62 -61 97 -104 78 -96 91 -107 153 -130
56 -22 145 -34 145 -21 0 5 -41 71 -91 147 -93 140 -156 256 -179 327 -19 59
-46 110 -81 149 -52 60 -59 131 -17 176 15 16 23 18 34 9 12 -9 11 -14 -1 -32
-23 -33 -18 -58 24 -143 22 -44 51 -112 65 -151 14 -40 35 -91 46 -114 23 -44
129 -214 200 -321 l45 -66 170 -56 c93 -31 260 -82 370 -115 110 -33 229 -69
265 -80 79 -25 374 -92 525 -120 270 -50 438 -65 720 -66 l270 0 90 -49 c50
-27 124 -66 165 -88 l75 -40 -44 42 c-25 22 -94 65 -154 95 -66 34 -99 55 -85
55 52 0 52 18 0 36 -28 10 -48 22 -46 26 3 4 1 8 -3 8 -5 0 -13 13 -19 28 -8
21 -8 31 3 41 10 9 11 16 3 26 -8 10 -8 15 0 20 8 5 8 11 1 19 -6 7 -8 16 -5
19 4 4 -1 18 -10 31 -15 24 -15 25 1 19 16 -6 16 -5 4 10 -7 9 -20 17 -27 17
-9 0 -14 11 -14 29 0 16 -6 31 -15 35 -8 3 -15 15 -15 26 0 11 -7 20 -16 20
-8 0 -13 4 -9 9 3 5 -2 16 -10 24 -8 9 -15 20 -15 24 0 5 -8 18 -17 29 -10 10
-19 30 -21 44 -1 14 -10 32 -20 40 -10 8 -26 40 -36 70 -11 30 -28 75 -38 99
-11 24 -21 53 -22 65 -1 11 -10 35 -19 53 -9 18 -17 40 -17 50 0 10 -7 27 -15
37 -8 11 -15 30 -15 42 0 13 -13 62 -29 111 -16 48 -36 115 -45 148 -9 33 -23
85 -32 115 -9 30 -18 70 -20 89 -3 19 -12 39 -20 46 -9 6 -14 15 -13 20 1 6
-3 23 -9 38 -7 16 -10 32 -7 37 3 5 1 11 -4 14 -5 4 -12 24 -16 46 -4 22 -11
40 -17 40 -6 0 -7 7 -4 16 3 9 3 21 -1 27 -4 7 -8 14 -8 17 -1 3 -5 30 -9 60
-5 30 -14 69 -20 85 -8 18 -10 41 -5 57 5 21 4 28 -7 28 -8 0 -14 9 -14 20 0
11 -5 20 -11 20 -5 0 -7 5 -3 11 9 15 -16 59 -33 59 -8 0 -11 5 -8 10 4 6 11
8 16 5 5 -4 9 -2 9 3 0 6 -7 12 -15 16 -8 3 -15 13 -15 22 0 12 -6 15 -21 11
-16 -4 -20 -1 -17 16 2 12 9 21 16 20 6 -2 12 2 12 7 0 6 -6 10 -12 10 -17 1
-49 45 -51 70 -1 11 -7 20 -14 20 -25 0 -82 169 -87 257 -2 43 0 51 11 42 9
-8 13 -8 13 0 0 20 49 12 61 -10 7 -14 17 -19 30 -16 13 4 19 0 19 -12 0 -16
10 -17 63 -12 4 1 7 6 7 12 0 8 -5 8 -15 -1 -13 -11 -14 -6 -8 46 8 73 6 124
-6 138 -5 6 -25 41 -44 78 -19 36 -52 85 -73 108 -38 40 -55 68 -88 139 -22
46 -20 152 3 226 30 94 104 256 147 321 72 109 194 161 357 152 179 -10 257
-93 511 -540 24 -44 46 -62 46 -39 0 17 -68 167 -134 298 -36 72 -66 134 -66
139 0 5 20 29 45 54 24 25 55 65 68 90 14 25 32 59 41 75 9 17 32 73 52 125
l37 95 -6 180 c-4 99 -12 209 -17 245 -10 62 -21 230 -19 295 2 58 0 101 -7
149 -5 43 -4 48 11 43 9 -4 18 -7 21 -7 2 0 1 -13 -2 -30 -7 -31 6 -40 23 -17
12 15 8 109 -5 146 -14 38 -29 98 -41 161 -24 135 -42 217 -53 237 -6 12 -8
34 -5 49 3 15 1 35 -3 43 -15 28 -60 185 -60 208 0 13 -6 40 -14 60 -23 64
-36 131 -36 181 0 27 -3 52 -7 56 -4 4 -8 36 -10 72 -1 36 -7 71 -13 79 -9 10
-6 15 11 20 21 7 21 8 3 18 -27 14 -26 12 -31 51 -2 20 0 36 5 36 5 0 13 7 16
16 3 8 2 12 -3 9 -5 -3 -12 -1 -16 5 -3 5 -1 10 4 10 6 0 11 5 11 10 0 6 -7
10 -15 10 -11 0 -14 9 -12 33 2 17 -3 42 -10 53 -8 12 -15 57 -17 100 -2 44
-5 84 -6 89 -2 6 0 22 4 38 8 28 -8 85 -28 99 -7 5 -7 8 2 8 17 0 15 25 -2 40
-30 24 -73 135 -86 220 -12 80 -39 192 -49 204 -5 6 -12 26 -16 45 -4 18 -17
44 -29 58 -11 13 -21 28 -22 31 0 4 -8 24 -17 46 -9 21 -17 40 -17 42 0 2 -9
13 -20 24 -12 12 -18 26 -14 33 4 7 4 9 -1 5 -8 -8 -35 15 -35 31 0 5 -23 39
-50 75 -28 36 -49 71 -48 78 2 7 -3 12 -9 11 -7 -2 -15 8 -19 22 -3 14 -13 25
-20 25 -8 0 -17 7 -20 15 -3 8 -22 25 -42 37 -21 13 -30 24 -23 26 7 2 17 -2
22 -9 5 -9 11 -10 18 -4 15 16 -23 56 -50 53 -13 -2 -24 2 -24 9 0 6 -4 15 -9
20 -5 5 -6 3 -2 -5 10 -17 -44 -5 -59 12 -5 7 -19 16 -30 21 -18 7 -18 9 -2
12 9 3 15 9 12 14 -4 5 -17 6 -31 3 -17 -4 -34 1 -58 20 -19 14 -40 26 -46 26
-6 0 -27 11 -48 23 -51 32 -192 104 -217 110 -11 3 -65 21 -121 41 -55 20
-112 36 -125 35 -40 -1 -137 17 -151 28 -7 6 -33 14 -58 18 -25 4 -56 12 -70
18 -35 15 -63 17 -77 5 -9 -7 -21 -5 -39 7 -33 21 -173 21 -228 -1 -14 -5 -17
-3 -14 7 3 8 11 13 17 11 7 -1 21 4 32 12 20 14 20 14 -5 12 -15 0 -38 -4 -53
-8z m150 -45 c-7 -2 -19 -2 -25 0 -7 3 -2 5 12 5 14 0 19 -2 13 -5z m-148
-593 c3 -5 28 -10 55 -10 84 0 211 -30 247 -59 18 -14 33 -31 33 -38 0 -15 35
-35 44 -26 3 4 -2 16 -11 27 -18 20 -18 20 5 6 13 -8 23 -19 23 -25 0 -14 60
-75 74 -75 14 0 145 -126 145 -139 0 -5 6 -16 13 -23 7 -7 18 -26 25 -41 7
-16 20 -31 30 -34 10 -2 23 -16 29 -31 18 -40 34 -85 38 -102 2 -8 13 -49 24
-90 30 -107 24 -257 -14 -390 -11 -37 -17 -104 -19 -205 -2 -134 -5 -158 -30
-230 -34 -98 -54 -142 -66 -150 -5 -3 -14 -24 -20 -47 -7 -22 -22 -58 -36 -79
-13 -21 -24 -47 -24 -58 0 -11 -6 -24 -14 -28 -15 -9 -56 -89 -56 -110 0 -8
-9 -33 -20 -55 -11 -23 -20 -53 -20 -66 0 -64 -40 -264 -55 -277 -6 -5 -15
-22 -18 -37 -5 -19 -28 -41 -80 -75 -39 -26 -76 -50 -82 -51 -5 -2 -60 -28
-120 -57 -147 -71 -186 -85 -275 -98 -110 -16 -307 -15 -350 2 -94 38 -178 70
-210 82 -50 18 -137 75 -148 96 -42 81 -64 191 -79 388 -12 160 -7 255 15 285
17 24 17 26 -5 70 -12 25 -23 55 -23 68 0 12 -4 22 -9 22 -6 0 -10 8 -10 18 0
9 -9 60 -21 112 -17 74 -20 114 -16 180 8 108 16 141 53 215 49 96 63 109 106
101 20 -4 37 -13 37 -20 0 -30 36 -43 128 -50 78 -5 92 -3 92 9 0 15 16 18 98
18 38 -1 41 1 25 13 -17 12 -16 13 10 14 32 0 31 -4 12 51 -10 27 -34 60 -68
91 l-52 47 35 -5 35 -6 -30 21 c-35 24 -60 35 -138 56 -62 18 -93 49 -60 63
46 18 118 7 193 -31 102 -51 139 -78 146 -105 4 -13 9 -21 12 -18 3 3 11 1 18
-4 9 -8 12 -4 13 17 0 15 1 37 1 48 1 11 -2 39 -5 62 -5 34 -13 46 -43 64
-115 71 -168 88 -268 91 -30 1 -54 5 -54 9 0 40 29 119 61 169 21 33 39 65 39
70 0 6 3 10 8 10 4 1 25 25 47 54 22 30 60 65 85 79 25 14 60 39 79 56 19 17
38 31 42 31 5 0 19 11 34 24 14 13 60 36 103 52 88 32 82 30 146 44 27 5 52
12 54 15 9 8 30 6 37 -5z m-682 -993 c-6 -37 -6 -38 -24 -18 -23 25 -24 35 -3
56 23 23 35 6 27 -38z m132 33 c8 -13 -5 -13 -25 0 -13 8 -13 10 2 10 9 0 20
-4 23 -10z m940 -1930 c3 -5 15 -10 26 -10 29 0 27 -69 -3 -97 -33 -30 -153
-101 -225 -135 -68 -31 -84 -58 -33 -58 17 0 33 -7 39 -17 7 -14 -2 -30 -49
-80 -62 -66 -79 -108 -59 -141 10 -16 10 -33 0 -84 -19 -92 -17 -106 20 -137
30 -26 32 -30 22 -57 -6 -16 -14 -43 -17 -61 -5 -30 -3 -33 31 -42 20 -6 47
-8 60 -5 14 4 23 2 23 -6 0 -14 -127 -73 -191 -88 -26 -7 -53 -14 -62 -18 -14
-5 -15 9 -11 117 2 67 6 124 8 126 6 7 -12 76 -22 82 -16 11 -34 51 -22 51 15
0 -6 38 -36 64 -14 12 -27 35 -30 51 -3 17 -9 34 -15 40 -5 5 -9 19 -9 31 0
13 -5 26 -11 30 -12 7 -8 40 11 94 44 122 56 147 79 168 36 32 159 92 188 92
13 0 51 11 85 25 38 15 70 22 85 19 19 -5 31 1 55 25 31 32 52 39 63 21z
m-1615 -206 c0 -14 -45 -104 -52 -104 -19 0 1 98 21 103 26 7 31 7 31 1z
m3324 -326 c17 -27 35 -125 33 -183 0 -22 5 -60 12 -85 15 -52 9 -144 -12
-169 -7 -9 -22 -36 -32 -61 -28 -66 -45 -90 -65 -90 -16 0 -18 12 -19 130 0
72 -3 135 -7 141 -11 18 -33 176 -27 198 3 12 0 27 -6 35 -9 10 -8 16 4 26 8
7 15 19 15 26 0 8 5 14 10 14 6 0 10 -8 10 -19 0 -10 6 -24 14 -30 7 -6 21
-41 31 -78 10 -38 22 -73 26 -78 4 -6 11 -30 15 -53 4 -23 11 -45 15 -48 13
-8 10 42 -5 108 -8 31 -12 59 -10 61 3 2 -5 25 -16 51 -21 50 -27 126 -10 126
5 0 16 -10 24 -22z m-2856 -4 c7 -5 -74 -54 -90 -54 -19 0 -22 11 -12 47 6 20
11 22 53 16 25 -3 47 -7 49 -9z m-128 -37 c0 -7 -7 -22 -15 -33 -14 -18 -14
-17 -15 14 0 22 5 32 15 32 8 0 15 -6 15 -13z m577 -212 c15 -19 33 -35 40
-35 6 0 26 -15 44 -32 18 -18 39 -32 47 -30 21 5 32 -16 32 -60 0 -20 4 -39 9
-42 5 -3 11 -22 13 -42 5 -43 -12 -58 -94 -80 -66 -18 -124 -10 -140 19 -12
23 -15 279 -3 315 9 30 20 28 52 -13z m697 -136 c16 -15 -7 -64 -31 -67 -39
-6 -73 71 -35 81 20 5 53 -2 66 -14z m-34 -479 c0 -5 -2 -10 -4 -10 -3 0 -8 5
-11 10 -3 6 -1 10 4 10 6 0 11 -4 11 -10z m-2261 -249 c11 -7 10 -11 -5 -19
-46 -23 -133 -24 -118 -1 12 21 99 35 123 20z m2131 -131 c10 -5 26 -30 36
-56 16 -41 23 -48 83 -75 149 -69 213 -89 282 -89 87 0 107 -16 119 -90 4 -30
11 -66 15 -80 8 -24 7 -24 -27 8 -27 25 -42 32 -75 32 -29 0 -50 7 -70 23 -15
13 -65 37 -111 52 -46 16 -129 54 -185 85 -91 49 -102 58 -105 85 -2 17 -8 42
-14 57 -19 49 7 72 52 48z m-1629 -350 c10 -6 29 -29 40 -52 19 -36 21 -53 15
-116 -8 -102 -20 -123 -84 -146 -63 -22 -102 -12 -102 27 0 13 -5 28 -12 35
-18 18 -16 162 2 198 26 52 41 64 82 64 22 0 48 -5 59 -10z m-441 -92 c36 -12
31 -26 -7 -21 -15 3 -40 0 -55 -6 -22 -8 -28 -17 -28 -40 0 -36 31 -61 77 -61
17 0 34 -4 38 -9 15 -25 -93 -30 -230 -11 -76 10 -84 10 -155 -15 -111 -39
-125 -40 -149 -16 -48 48 -9 135 74 163 28 9 77 17 110 18 33 1 83 5 110 10
58 10 172 3 215 -12z m2691 -97 c6 -20 35 -74 63 -121 61 -102 66 -146 25
-204 -41 -58 -124 -123 -186 -146 l-58 -22 -156 26 c-86 14 -201 40 -255 58
-55 18 -107 32 -116 30 -10 -1 -22 7 -27 17 -14 26 -87 53 -121 46 -20 -4 -32
-1 -42 12 -7 10 -24 18 -38 18 -15 0 -24 5 -23 13 2 6 -4 12 -13 12 -9 0 -31
13 -48 28 -19 16 -68 39 -121 56 -103 32 -117 41 -80 50 58 15 235 -41 235
-74 0 -4 39 -27 88 -50 137 -66 179 -81 204 -72 13 5 31 7 41 4 15 -3 16 -7 6
-18 -15 -19 -13 -21 52 -44 34 -11 58 -15 64 -9 17 17 52 10 58 -11 5 -19 15
-20 134 -22 284 -5 314 4 373 115 30 56 23 93 -34 183 -50 77 -91 210 -55 178
10 -9 23 -33 30 -53z m-2626 38 c10 -15 -1 -23 -20 -15 -9 3 -13 10 -10 16 8
13 22 13 30 -1z m939 -178 c9 -14 -4 -41 -19 -41 -18 0 -28 17 -21 35 6 17 32
20 40 6z m62 -92 c3 -6 2 -15 -2 -19 -12 -12 -38 5 -30 19 9 14 23 14 32 0z
m-956 -38 c122 -8 189 -26 275 -74 18 -10 17 -12 -15 -17 -32 -5 -35 -8 -38
-44 -3 -46 16 -72 59 -81 41 -9 69 -42 69 -81 0 -31 -1 -31 -60 -38 l-59 -7 6
-32 c8 -43 13 -48 62 -54 49 -7 55 -13 36 -39 -14 -20 2 -20 -320 -11 -38 1
-124 -2 -190 -7 -113 -8 -124 -7 -162 12 -43 23 -83 69 -83 97 0 31 30 73 59
83 41 14 414 4 530 -14 51 -9 96 -13 99 -9 3 3 2 17 -4 32 -7 22 -19 29 -64
39 -233 52 -207 49 -369 36 -144 -12 -152 -12 -189 7 -99 51 -121 142 -48 204
22 19 57 19 406 -2z m-576 -262 c-15 -16 -31 -29 -36 -29 -19 0 -6 31 25 59
25 25 33 28 35 15 2 -9 -9 -29 -24 -45z m2250 -155 c18 -7 21 -30 5 -39 -19
-13 -59 4 -59 25 0 20 22 26 54 14z m-2224 -103 c0 -12 -20 -25 -27 -18 -7 7
6 27 18 27 5 0 9 -4 9 -9z m660 3 c0 -3 -7 -12 -15 -20 -20 -20 -19 -53 1 -61
9 -3 31 -1 50 5 90 27 14 -63 -80 -95 -28 -9 -77 -16 -111 -16 -49 1 -71 -5
-127 -33 -100 -51 -151 -46 -192 18 -17 27 -17 29 1 60 14 24 31 37 63 46 25
7 72 22 105 33 156 53 305 84 305 63z m79 -27 c6 -8 8 -17 5 -20 -9 -8 -54 14
-48 24 8 13 30 11 43 -4z m21 -307 c0 -5 -4 -10 -9 -10 -6 0 -13 5 -16 10 -3
6 1 10 9 10 9 0 16 -4 16 -10z m-145 -40 c8 -13 -5 -13 -25 0 -13 8 -13 10 2
10 9 0 20 -4 23 -10z m102 -6 c-3 -3 -12 -4 -19 -1 -8 3 -5 6 6 6 11 1 17 -2
13 -5z m1021 -52 c2 -7 -3 -12 -12 -12 -9 0 -16 7 -16 16 0 17 22 14 28 -4z
m162 -342 c0 -5 -4 -10 -10 -10 -5 0 -10 5 -10 10 0 6 5 10 10 10 6 0 10 -4
10 -10z m6 -101 c3 -6 2 -15 -3 -20 -13 -13 -43 -1 -43 17 0 16 36 19 46 3z
m2373 -2268 c80 -86 103 -123 98 -161 -3 -23 2 -44 14 -61 10 -15 28 -47 38
-72 12 -27 31 -52 48 -61 43 -24 107 -86 138 -133 15 -23 36 -45 46 -48 20 -7
27 -35 9 -35 -6 0 -21 11 -33 25 -54 63 -106 110 -153 141 -39 25 -56 44 -72
81 -30 70 -48 91 -63 76 -32 -32 -93 8 -132 86 -23 44 -43 182 -29 196 17 17
58 1 91 -34z m-435 -552 c46 -36 27 -109 -29 -109 -36 0 -85 46 -85 80 0 50
66 67 114 29z"/>
<path d="M4860 9074 c-20 -11 -21 -14 -7 -14 10 0 15 -4 12 -10 -3 -5 -2 -10
4 -10 6 0 7 -8 4 -17 -5 -13 -3 -15 12 -9 21 8 154 -12 170 -26 15 -13 55 -9
55 6 0 8 -16 17 -37 21 -21 4 -44 12 -51 18 -8 6 -32 10 -53 8 -33 -2 -39 0
-39 17 0 11 -7 23 -16 26 -20 8 -24 7 -54 -10z m55 -24 c-3 -5 -11 -10 -16
-10 -6 0 -7 5 -4 10 3 6 11 10 16 10 6 0 7 -4 4 -10z"/>
<path d="M4343 8977 c-16 -23 -14 -62 7 -96 18 -29 33 -34 36 -13 0 4 4 14 8
23 7 15 -17 83 -33 93 -5 3 -13 0 -18 -7z"/>
<path d="M4812 8848 c-7 -7 -12 -17 -12 -23 0 -6 -13 -24 -30 -40 -16 -16 -30
-39 -30 -51 0 -25 55 -74 83 -74 9 0 19 -4 22 -10 8 -12 45 -13 45 -1 0 5 -7
11 -15 15 -22 8 -18 33 7 50 35 25 46 19 53 -25 9 -50 27 -58 113 -51 35 2 73
0 85 -5 35 -16 118 -34 128 -28 15 10 10 49 -11 75 -11 14 -20 32 -20 42 0 18
-54 68 -74 68 -7 0 -27 7 -44 16 -17 8 -48 18 -69 21 -21 3 -41 11 -45 17 -10
15 -171 19 -186 4z m-17 -138 c3 -5 -1 -10 -10 -10 -9 0 -13 5 -10 10 3 6 8
10 10 10 2 0 7 -4 10 -10z"/>
<path d="M4096 8321 c-18 -20 -36 -73 -36 -106 0 -29 104 -103 156 -111 33 -5
52 0 92 20 60 31 81 32 144 9 35 -12 55 -14 75 -7 29 10 43 34 20 34 -9 0 -35
15 -59 33 -65 49 -91 57 -184 57 l-85 0 -41 45 c-46 50 -57 54 -82 26z"/>
<path d="M3925 7996 c-17 -25 -15 -33 26 -106 10 -19 19 -55 19 -80 1 -70 16
-130 36 -145 28 -21 110 -47 149 -47 18 0 55 11 82 24 34 17 73 27 132 31 76
6 142 29 127 44 -2 3 -58 6 -123 8 -105 2 -126 6 -187 32 -71 30 -99 55 -81
72 6 6 32 2 70 -10 34 -11 90 -19 130 -19 39 0 104 -9 145 -20 138 -36 260
-22 260 30 0 19 -8 22 -95 36 -42 7 -206 59 -239 76 -13 7 -21 6 -27 -3 -7
-11 -9 -11 -9 -1 0 16 -31 28 -91 35 -25 3 -63 15 -85 26 -29 14 -58 19 -114
19 -46 0 -76 4 -78 11 -6 19 -31 12 -47 -13z"/>
<path d="M6850 6065 c0 -8 5 -15 10 -15 6 0 10 7 10 15 0 8 -4 15 -10 15 -5 0
-10 -7 -10 -15z"/>
<path d="M10410 10370 c13 -23 20 -26 20 -6 0 8 -7 16 -15 20 -13 4 -14 2 -5
-14z"/>
<path d="M10440 10370 c0 -5 5 -10 10 -10 6 0 10 5 10 10 0 6 -4 10 -10 10 -5
0 -10 -4 -10 -10z"/>
<path d="M4270 10330 c0 -5 5 -10 10 -10 6 0 10 5 10 10 0 6 -4 10 -10 10 -5
0 -10 -4 -10 -10z"/>
<path d="M10546 10315 c4 -8 8 -15 10 -15 2 0 4 7 4 15 0 8 -4 15 -10 15 -5 0
-7 -7 -4 -15z"/>
<path d="M4205 10250 c3 -5 13 -10 21 -10 8 0 12 5 9 10 -3 6 -13 10 -21 10
-8 0 -12 -4 -9 -10z"/>
<path d="M4285 10250 c-3 -5 -2 -10 4 -10 5 0 13 5 16 10 3 6 2 10 -4 10 -5 0
-13 -4 -16 -10z"/>
<path d="M9110 10249 c0 -5 5 -7 10 -4 6 3 10 8 10 11 0 2 -4 4 -10 4 -5 0
-10 -5 -10 -11z"/>
<path d="M5888 10243 c6 -2 18 -2 25 0 6 3 1 5 -13 5 -14 0 -19 -2 -12 -5z"/>
<path d="M4066 10181 c-3 -5 0 -11 8 -14 15 -6 26 1 26 15 0 11 -27 10 -34 -1z"/>
<path d="M4165 10160 c-3 -5 -1 -10 4 -10 6 0 11 5 11 10 0 6 -2 10 -4 10 -3
0 -8 -4 -11 -10z"/>
<path d="M4210 10155 c-7 -8 -9 -15 -6 -15 4 0 14 7 22 15 9 8 11 15 6 15 -5
0 -15 -7 -22 -15z"/>
<path d="M6080 10150 c0 -6 7 -10 15 -10 8 0 15 2 15 4 0 2 -7 6 -15 10 -8 3
-15 1 -15 -4z"/>
<path d="M7750 10150 c0 -5 10 -10 23 -10 18 0 19 2 7 10 -19 13 -30 13 -30 0z"/>
<path d="M4138 10103 c7 -3 16 -2 19 1 4 3 -2 6 -13 5 -11 0 -14 -3 -6 -6z"/>
<path d="M4050 10080 c-8 -5 -11 -12 -8 -16 10 -9 38 3 38 16 0 12 -10 13 -30
0z"/>
<path d="M7890 10040 c0 -5 7 -10 16 -10 8 0 12 5 9 10 -3 6 -10 10 -16 10 -5
0 -9 -4 -9 -10z"/>
<path d="M6250 9990 c0 -5 5 -10 11 -10 5 0 7 5 4 10 -3 6 -8 10 -11 10 -2 0
-4 -4 -4 -10z"/>
<path d="M9838 9983 c7 -3 16 -2 19 1 4 3 -2 6 -13 5 -11 0 -14 -3 -6 -6z"/>
<path d="M9490 9909 c0 -5 5 -7 10 -4 6 3 10 8 10 11 0 2 -4 4 -10 4 -5 0 -10
-5 -10 -11z"/>
<path d="M9535 9910 c7 -12 75 -13 75 -2 0 5 -18 9 -41 10 -24 1 -38 -2 -34
-8z"/>
<path d="M9155 9790 c-3 -5 -1 -10 4 -10 6 0 11 5 11 10 0 6 -2 10 -4 10 -3 0
-8 -4 -11 -10z"/>
<path d="M10490 9720 c0 -5 5 -10 10 -10 6 0 10 5 10 10 0 6 -4 10 -10 10 -5
0 -10 -4 -10 -10z"/>
<path d="M8790 9680 c0 -5 5 -10 11 -10 5 0 7 5 4 10 -3 6 -8 10 -11 10 -2 0
-4 -4 -4 -10z"/>
<path d="M10160 9640 c0 -5 5 -10 11 -10 5 0 7 5 4 10 -3 6 -8 10 -11 10 -2 0
-4 -4 -4 -10z"/>
<path d="M6785 8470 c-3 -5 -1 -10 4 -10 6 0 11 5 11 10 0 6 -2 10 -4 10 -3 0
-8 -4 -11 -10z"/>
</g>
</svg>
